<svg width="215" height="42" viewBox="0 0 215 42" fill="none" xmlns="http://www.w3.org/2000/svg">
<path d="M0 25.5852V19.5852L24 9.01706V15.9205L7.56818 22.5171L7.78977 22.1591V23.0114L7.56818 22.6534L24 29.25V36.1534L0 25.5852ZM46.4148 1.43051e-05L35.1648 41.7955H28.9091L40.1591 1.43051e-05H46.4148ZM50.0497 36.5455V1.63638H57.4304V16.0398H72.4134V1.63638H79.777V36.5455H72.4134V22.125H57.4304V36.5455H50.0497ZM84.5327 7.72161V1.63638H113.203V7.72161H102.516V36.5455H95.2202V7.72161H84.5327ZM117.925 1.63638H127.027L136.641 25.0909H137.05L146.663 1.63638H155.766V36.5455H148.607V13.8239H148.317L139.283 36.375H134.408L125.374 13.7387H125.084V36.5455H117.925V1.63638ZM161.847 36.5455V1.63638H169.227V30.4602H184.193V36.5455H161.847ZM214.359 22.3125L190.359 32.8807V25.9773L206.791 19.3807L206.57 19.7387V18.8864L206.791 19.2443L190.359 12.6477V5.74433L214.359 16.3125V22.3125Z" fill="#30CBC2"/>
</svg>
